<svg width="38" height="38" viewBox="0 0 38 38" fill="none" xmlns="http://www.w3.org/2000/svg">
<path d="M35.5 0.5H2.5C1.96957 0.5 1.46086 0.710714 1.08579 1.08579C0.710714 1.46086 0.5 1.96957 0.5 2.5V35.5C0.5 36.0304 0.710714 36.5391 1.08579 36.9142C1.46086 37.2893 1.96957 37.5 2.5 37.5H35.5C36.0304 37.5 36.5391 37.2893 36.9142 36.9142C37.2893 36.5391 37.5 36.0304 37.5 35.5V2.5C37.5 1.96957 37.2893 1.46086 36.9142 1.08579C36.5391 0.710714 36.0304 0.5 35.5 0.5V0.5Z" stroke="white" stroke-linejoin="round"/>
<path d="M10.39 37.5L15.811 26.147L17.188 29.231L20.663 19.604L22.408 21.908L24.922 16.345L26.05 17.775L37.5 4.133M9.27199 9.082H7.55499M9.27199 9.082V13.928H12.471C13.1136 13.928 13.7299 13.6727 14.1843 13.2183C14.6387 12.7639 14.894 12.1476 14.894 11.505C14.894 10.8624 14.6387 10.2461 14.1843 9.79168C13.7299 9.33728 13.1136 9.082 12.471 9.082H9.27199Z" stroke="white" stroke-linejoin="round"/>
<path d="M9.27199 19.09H7.55499M9.26799 19.122V20.711M12.047 19.122V20.711M9.26799 7.332V8.922M12.047 7.332V8.922M9.27199 13.928V19.093H12.682C13.0254 19.0998 13.3667 19.038 13.686 18.9112C14.0052 18.7845 14.296 18.5953 14.5412 18.3548C14.7865 18.1144 14.9813 17.8274 15.1143 17.5107C15.2473 17.194 15.3158 16.854 15.3158 16.5105C15.3158 16.167 15.2473 15.827 15.1143 15.5103C14.9813 15.1936 14.7865 14.9066 14.5412 14.6662C14.296 14.4257 14.0052 14.2365 13.686 14.1098C13.3667 13.983 13.0254 13.9212 12.682 13.928H9.27199Z" stroke="white" stroke-linejoin="round"/>
</svg>
