<svg width="31" height="27" viewBox="0 0 31 27" fill="none" xmlns="http://www.w3.org/2000/svg">
<path d="M15.5 27C12.8697 27 10.4508 26.4784 8.24318 25.4352C6.03561 24.392 4.22727 23.0011 2.81818 21.2625V23.3182C2.81818 23.6659 2.68338 23.9572 2.41377 24.192C2.14323 24.4276 1.80833 24.5455 1.40909 24.5455C1.00985 24.5455 0.675424 24.4276 0.405818 24.192C0.135273 23.9572 0 23.6659 0 23.3182V18.4091C0 18.0614 0.135273 17.7697 0.405818 17.534C0.675424 17.2992 1.00985 17.1818 1.40909 17.1818H7.04545C7.4447 17.1818 7.77959 17.2992 8.05014 17.534C8.31974 17.7697 8.45455 18.0614 8.45455 18.4091C8.45455 18.7568 8.31974 19.0481 8.05014 19.2829C7.77959 19.5185 7.4447 19.6364 7.04545 19.6364H4.96705C6.09432 21.1091 7.57997 22.2955 9.424 23.1955C11.2671 24.0955 13.2924 24.5455 15.5 24.5455C18.7879 24.5455 21.6239 23.6045 24.0081 21.7227C26.3913 19.8409 27.7591 17.5091 28.1114 14.7273C28.1583 14.3795 28.3171 14.0879 28.5876 13.8522C28.8572 13.6174 29.1917 13.5 29.5909 13.5C29.9902 13.5 30.3246 13.6227 30.5942 13.8682C30.8647 14.1136 30.9765 14.4 30.9295 14.7273C30.7652 16.4455 30.2428 18.0511 29.3626 19.5443C28.4815 21.0375 27.3542 22.3364 25.9808 23.4409C24.6065 24.5455 23.0208 25.4148 21.2237 26.0489C19.4276 26.683 17.5197 27 15.5 27ZM1.40909 13.5C1.00985 13.5 0.675424 13.3773 0.405818 13.1318C0.135273 12.8864 0.0234848 12.6 0.0704545 12.2727C0.258333 10.5545 0.786742 8.94886 1.65568 7.45568C2.52462 5.9625 3.64579 4.66364 5.01918 3.55909C6.39351 2.45455 7.97921 1.58523 9.77627 0.951136C11.5724 0.317045 13.4803 0 15.5 0C18.1303 0 20.5492 0.521591 22.7568 1.56477C24.9644 2.60795 26.7727 3.99886 28.1818 5.7375V3.68182C28.1818 3.33409 28.3171 3.04241 28.5876 2.80677C28.8572 2.57195 29.1917 2.45455 29.5909 2.45455C29.9902 2.45455 30.3246 2.57195 30.5942 2.80677C30.8647 3.04241 31 3.33409 31 3.68182V8.59091C31 8.93864 30.8647 9.22991 30.5942 9.46473C30.3246 9.70036 29.9902 9.81818 29.5909 9.81818H23.9545C23.5553 9.81818 23.2209 9.70036 22.9513 9.46473C22.6807 9.22991 22.5455 8.93864 22.5455 8.59091C22.5455 8.24318 22.6807 7.9515 22.9513 7.71586C23.2209 7.48105 23.5553 7.36364 23.9545 7.36364H26.033C24.9057 5.89091 23.42 4.70455 21.576 3.80455C19.7329 2.90455 17.7076 2.45455 15.5 2.45455C12.2121 2.45455 9.37656 3.39545 6.99332 5.27727C4.60914 7.15909 3.24091 9.49091 2.88864 12.2727C2.84167 12.6205 2.68338 12.9117 2.41377 13.1465C2.14323 13.3822 1.80833 13.5 1.40909 13.5ZM15.4648 22.0909C15.136 22.0909 14.8485 21.9837 14.6024 21.7694C14.3553 21.5542 14.2318 21.3034 14.2318 21.017V20.4955C13.3394 20.3318 12.5761 20.0299 11.942 19.5897C11.308 19.1504 10.803 18.583 10.4273 17.8875C10.2864 17.6216 10.2925 17.3455 10.4456 17.0591C10.5978 16.7727 10.8383 16.5784 11.167 16.4761C11.4723 16.3739 11.7777 16.3739 12.083 16.4761C12.3883 16.5784 12.6348 16.7727 12.8227 17.0591C13.1515 17.5705 13.5625 17.9538 14.0557 18.209C14.5489 18.4651 15.1008 18.5932 15.7114 18.5932C16.4864 18.5932 17.1496 18.4345 17.701 18.117C18.2534 17.8004 18.5295 17.3045 18.5295 16.6295C18.5295 16.0364 18.2421 15.5557 17.6672 15.1875C17.0913 14.8193 16.0636 14.4 14.5841 13.9295C13.1985 13.5 12.183 12.9886 11.5376 12.3955C10.8913 11.8023 10.5682 11.025 10.5682 10.0636C10.5682 9.225 10.897 8.46818 11.5545 7.79318C12.2121 7.11818 13.128 6.66818 14.3023 6.44318V5.98295C14.3023 5.69659 14.4258 5.44582 14.6729 5.23064C14.919 5.01627 15.2064 4.90909 15.5352 4.90909C15.864 4.90909 16.1515 5.01627 16.3976 5.23064C16.6447 5.44582 16.7682 5.69659 16.7682 5.98295V6.44318C17.4023 6.48409 17.9955 6.66818 18.5479 6.99545C19.0993 7.32273 19.5629 7.72159 19.9386 8.19205C20.1265 8.4375 20.1561 8.70832 20.0274 9.0045C19.8978 9.3015 19.6568 9.51136 19.3045 9.63409C19.0462 9.73636 18.7705 9.74168 18.4774 9.65005C18.1834 9.55759 17.9189 9.38864 17.6841 9.14318C17.4492 8.89773 17.1557 8.70341 16.8034 8.56023C16.4511 8.41704 16.0402 8.34545 15.5705 8.34545C14.7485 8.34545 14.1205 8.49886 13.6865 8.80568C13.2516 9.1125 13.0341 9.53182 13.0341 10.0636C13.0341 10.5955 13.3042 11.0148 13.8443 11.3216C14.3845 11.6284 15.3591 11.9864 16.7682 12.3955C18.4591 12.9273 19.5864 13.5511 20.15 14.267C20.7136 14.983 20.9955 15.7705 20.9955 16.6295C20.9955 17.8364 20.5727 18.7466 19.7273 19.3602C18.8818 19.9739 17.872 20.3727 16.6977 20.5568V21.017C16.6977 21.3034 16.5747 21.5542 16.3285 21.7694C16.0815 21.9837 15.7936 22.0909 15.4648 22.0909Z" fill="white"/>
</svg>
