<svg width="34" height="37" viewBox="0 0 34 37" fill="none" xmlns="http://www.w3.org/2000/svg">
<path d="M20.2575 21.4477V27.9987C20.2573 28.1301 20.2842 28.2603 20.3366 28.3818C20.389 28.5033 20.4658 28.6137 20.5627 28.7067C20.6596 28.7997 20.7746 28.8734 20.9012 28.9238C21.0279 28.9741 21.1636 29 21.3007 29H26.0168C26.1539 29.0001 26.2898 28.9743 26.4165 28.924C26.5433 28.8738 26.6584 28.8 26.7554 28.707C26.8524 28.614 26.9293 28.5036 26.9818 28.382C27.0342 28.2605 27.0611 28.1302 27.061 27.9987V19.8316H28.4293C28.7507 19.8314 29.0644 19.7368 29.328 19.5604C29.5915 19.384 29.7924 19.1343 29.9034 18.845C30.0143 18.5558 30.0301 18.2408 29.9486 17.9427C29.8671 17.6445 29.6922 17.3775 29.4475 17.1776L18.7471 8.43985C18.3994 8.15593 17.9576 8 17.5009 8C17.0441 8 16.6023 8.15593 16.2546 8.43985L5.55421 17.1776C5.30894 17.3772 5.13352 17.6443 5.05168 17.9426C4.96983 18.2409 4.9855 18.5562 5.09658 18.8457C5.20765 19.1352 5.40877 19.385 5.67272 19.5613C5.93668 19.7376 6.25074 19.832 6.57243 19.8316H7.94074V27.9996C7.941 28.265 8.05114 28.5195 8.24694 28.7071C8.44274 28.8946 8.70819 29 8.98497 29H13.7C13.9767 29 14.242 28.8946 14.4377 28.707C14.6333 28.5194 14.7432 28.2649 14.7432 27.9996V21.4487L20.2575 21.4477Z" stroke="#FBF8F8" stroke-linecap="round" stroke-linejoin="round"/>
<path d="M20.8227 1H2.72972C2.27097 1 1.831 1.19932 1.50661 1.55412C1.18223 1.90892 0.999988 2.39013 0.999988 2.89189V34.1081C0.999988 34.6099 1.18223 35.0911 1.50661 35.4459C1.831 35.8007 2.27097 36 2.72972 36H31.2703C31.729 36 32.169 35.8007 32.4934 35.4459C32.8178 35.0911 33 34.6099 33 34.1081V14.3189" stroke="white" stroke-linecap="round" stroke-linejoin="round"/>
</svg>
