<svg width="27" height="23" viewBox="0 0 27 23" fill="none" xmlns="http://www.w3.org/2000/svg">
<path d="M16.2575 14.4477V20.9987C16.2573 21.1301 16.2842 21.2603 16.3366 21.3818C16.389 21.5033 16.4658 21.6137 16.5627 21.7067C16.6596 21.7997 16.7746 21.8734 16.9012 21.9238C17.0279 21.9741 17.1636 22 17.3007 22H22.0168C22.1539 22.0001 22.2898 21.9743 22.4165 21.924C22.5433 21.8738 22.6584 21.8 22.7554 21.707C22.8524 21.614 22.9293 21.5036 22.9818 21.382C23.0342 21.2605 23.0611 21.1302 23.061 20.9987V12.8316H24.4293C24.7507 12.8314 25.0644 12.7368 25.328 12.5604C25.5915 12.384 25.7924 12.1343 25.9034 11.845C26.0143 11.5558 26.0301 11.2408 25.9486 10.9427C25.8671 10.6445 25.6922 10.3775 25.4475 10.1776L14.7471 1.43985C14.3994 1.15593 13.9576 1 13.5009 1C13.0441 1 12.6023 1.15593 12.2546 1.43985L1.55421 10.1776C1.30894 10.3772 1.13352 10.6443 1.05168 10.9426C0.96983 11.2409 0.985504 11.5562 1.09658 11.8457C1.20765 12.1352 1.40877 12.385 1.67272 12.5613C1.93668 12.7376 2.25074 12.832 2.57243 12.8316H3.94074V20.9996C3.941 21.265 4.05114 21.5195 4.24694 21.7071C4.44274 21.8946 4.70819 22 4.98497 22H9.70002C9.9767 22 10.242 21.8946 10.4377 21.707C10.6333 21.5194 10.7432 21.2649 10.7432 20.9996V14.4487L16.2575 14.4477Z" stroke="#FBF8F8" stroke-linecap="round" stroke-linejoin="round"/>
</svg>
