<svg width="34" height="31" viewBox="0 0 34 31" fill="none" xmlns="http://www.w3.org/2000/svg">
<path d="M29.9844 28.1404C30.955 28.1404 31.6075 27.3602 31.6075 26.1996V0.485179C31.6075 0.356501 31.5648 0.233094 31.4887 0.142106C31.4126 0.0511169 31.3094 0 31.2018 0C31.0941 0 30.9909 0.0511169 30.9148 0.142106C30.8387 0.233094 30.796 0.356501 30.796 0.485179V26.1996C30.796 27.0439 30.2871 27.17 29.9844 27.17C29.9008 27.17 29.1729 27.1428 29.1729 26.1996V0.485179C29.1729 0.356501 29.1301 0.233094 29.054 0.142106C28.9779 0.0511169 28.8747 0 28.7671 0C28.6595 0 28.5563 0.0511169 28.4802 0.142106C28.4041 0.233094 28.3613 0.356501 28.3613 0.485179V26.1996C28.3613 27.4737 29.1777 28.1404 29.9844 28.1404ZM3.60896 20.3775H11.7245C11.8321 20.3775 11.9353 20.3264 12.0114 20.2354C12.0875 20.1444 12.1303 20.021 12.1303 19.8923V11.1591C12.1303 11.0304 12.0875 10.907 12.0114 10.816C11.9353 10.725 11.8321 10.6739 11.7245 10.6739H3.60896C3.50134 10.6739 3.39813 10.725 3.32204 10.816C3.24594 10.907 3.20319 11.0304 3.20319 11.1591V19.8923C3.20319 20.021 3.24594 20.1444 3.32204 20.2354C3.39813 20.3264 3.50134 20.3775 3.60896 20.3775ZM4.01474 11.6443H11.3187V19.4071H4.01474V11.6443ZM3.60896 7.76286H23.0862C23.1938 7.76286 23.2971 7.71174 23.3732 7.62075C23.4493 7.52976 23.492 7.40636 23.492 7.27768V3.39625C23.492 3.26757 23.4493 3.14417 23.3732 3.05318C23.2971 2.96219 23.1938 2.91107 23.0862 2.91107H3.60896C3.50134 2.91107 3.39813 2.96219 3.32204 3.05318C3.24594 3.14417 3.20319 3.26757 3.20319 3.39625V7.27768C3.20319 7.40636 3.24594 7.52976 3.32204 7.62075C3.39813 7.71174 3.50134 7.76286 3.60896 7.76286ZM4.01474 3.88143H22.6805V6.7925H4.01474V3.88143ZM23.0862 10.6739H14.9707C14.8631 10.6739 14.7599 10.725 14.6838 10.816C14.6077 10.907 14.5649 11.0304 14.5649 11.1591C14.5649 11.2878 14.6077 11.4112 14.6838 11.5022C14.7599 11.5932 14.8631 11.6443 14.9707 11.6443H23.0862C23.1938 11.6443 23.2971 11.5932 23.3732 11.5022C23.4493 11.4112 23.492 11.2878 23.492 11.1591C23.492 11.0304 23.4493 10.907 23.3732 10.816C23.2971 10.725 23.1938 10.6739 23.0862 10.6739ZM23.0862 13.585H14.9707C14.8631 13.585 14.7599 13.6361 14.6838 13.7271C14.6077 13.8181 14.5649 13.9415 14.5649 14.0702C14.5649 14.1989 14.6077 14.3223 14.6838 14.4133C14.7599 14.5042 14.8631 14.5554 14.9707 14.5554H23.0862C23.1938 14.5554 23.2971 14.5042 23.3732 14.4133C23.4493 14.3223 23.492 14.1989 23.492 14.0702C23.492 13.9415 23.4493 13.8181 23.3732 13.7271C23.2971 13.6361 23.1938 13.585 23.0862 13.585ZM23.0862 16.4961H14.9707C14.8631 16.4961 14.7599 16.5472 14.6838 16.6382C14.6077 16.7292 14.5649 16.8526 14.5649 16.9813C14.5649 17.1099 14.6077 17.2333 14.6838 17.3243C14.7599 17.4153 14.8631 17.4664 14.9707 17.4664H23.0862C23.1938 17.4664 23.2971 17.4153 23.3732 17.3243C23.4493 17.2333 23.492 17.1099 23.492 16.9813C23.492 16.8526 23.4493 16.7292 23.3732 16.6382C23.2971 16.5472 23.1938 16.4961 23.0862 16.4961ZM23.0862 19.4071H14.9707C14.8631 19.4071 14.7599 19.4583 14.6838 19.5492C14.6077 19.6402 14.5649 19.7636 14.5649 19.8923C14.5649 20.021 14.6077 20.1444 14.6838 20.2354C14.7599 20.3264 14.8631 20.3775 14.9707 20.3775H23.0862C23.1938 20.3775 23.2971 20.3264 23.3732 20.2354C23.4493 20.1444 23.492 20.021 23.492 19.8923C23.492 19.7636 23.4493 19.6402 23.3732 19.5492C23.2971 19.4583 23.1938 19.4071 23.0862 19.4071ZM23.0862 22.3182H14.9707C14.8631 22.3182 14.7599 22.3693 14.6838 22.4603C14.6077 22.5513 14.5649 22.6747 14.5649 22.8034C14.5649 22.9321 14.6077 23.0555 14.6838 23.1465C14.7599 23.2375 14.8631 23.2886 14.9707 23.2886H23.0862C23.1938 23.2886 23.2971 23.2375 23.3732 23.1465C23.4493 23.0555 23.492 22.9321 23.492 22.8034C23.492 22.6747 23.4493 22.5513 23.3732 22.4603C23.2971 22.3693 23.1938 22.3182 23.0862 22.3182ZM3.60896 23.2886H11.7245C11.8321 23.2886 11.9353 23.2375 12.0114 23.1465C12.0875 23.0555 12.1303 22.9321 12.1303 22.8034C12.1303 22.6747 12.0875 22.5513 12.0114 22.4603C11.9353 22.3693 11.8321 22.3182 11.7245 22.3182H3.60896C3.50134 22.3182 3.39813 22.3693 3.32204 22.4603C3.24594 22.5513 3.20319 22.6747 3.20319 22.8034C3.20319 22.9321 3.24594 23.0555 3.32204 23.1465C3.39813 23.2375 3.50134 23.2886 3.60896 23.2886ZM23.0862 25.2293H14.9707C14.8631 25.2293 14.7599 25.2804 14.6838 25.3714C14.6077 25.4624 14.5649 25.5858 14.5649 25.7145C14.5649 25.8431 14.6077 25.9666 14.6838 26.0575C14.7599 26.1485 14.8631 26.1996 14.9707 26.1996H23.0862C23.1938 26.1996 23.2971 26.1485 23.3732 26.0575C23.4493 25.9666 23.492 25.8431 23.492 25.7145C23.492 25.5858 23.4493 25.4624 23.3732 25.3714C23.2971 25.2804 23.1938 25.2293 23.0862 25.2293ZM3.60896 26.1996H11.7245C11.8321 26.1996 11.9353 26.1485 12.0114 26.0575C12.0875 25.9666 12.1303 25.8431 12.1303 25.7145C12.1303 25.5858 12.0875 25.4624 12.0114 25.3714C11.9353 25.2804 11.8321 25.2293 11.7245 25.2293H3.60896C3.50134 25.2293 3.39813 25.2804 3.32204 25.3714C3.24594 25.4624 3.20319 25.5858 3.20319 25.7145C3.20319 25.8431 3.24594 25.9666 3.32204 26.0575C3.39813 26.1485 3.50134 26.1996 3.60896 26.1996Z" fill="white"/>
<path d="M4.01475 31H30.0007C30.0063 31 30.0112 30.9961 30.0169 30.9961C31.0754 30.9851 32.0874 30.4752 32.8332 29.5771C33.579 28.679 33.9983 27.4653 34 26.1997V0.485187C34 0.370149 33.9618 0.259824 33.8937 0.17848C33.8257 0.0971359 33.7334 0.0514374 33.6372 0.0514374C33.541 0.0514374 33.4488 0.0971359 33.3807 0.17848C33.3127 0.259824 33.2745 0.370149 33.2745 0.485187V26.1997C33.2745 28.3684 31.7991 30.1325 29.9852 30.1325C28.1714 30.1325 26.6952 28.3684 26.6952 26.1997V0.485187C26.6952 0.245509 26.5329 0.0514374 26.3324 0.0514374H0.362764C0.162311 0.0514374 0 0.245509 0 0.485187V26.1997C0.00107422 27.4724 0.424401 28.6926 1.17708 29.5926C1.92976 30.4926 2.9503 30.9987 4.01475 31ZM0.725528 0.918937H25.9689V26.1997C25.9689 26.4966 25.9989 26.7848 26.0419 27.0681C26.0508 27.1244 26.0581 27.1807 26.0687 27.236C26.119 27.5058 26.1856 27.7668 26.2724 28.0181C26.2878 28.0637 26.3065 28.1064 26.3235 28.151C26.4112 28.3859 26.5126 28.612 26.6303 28.8254C26.6441 28.8497 26.6546 28.8759 26.6684 28.9002C26.7967 29.1233 26.9427 29.33 27.0994 29.5241C27.1335 29.5658 27.1667 29.6066 27.2024 29.6473C27.3534 29.822 27.5124 29.9879 27.6845 30.1325H4.01475C3.14272 30.1312 2.30672 29.7165 1.69011 28.9792C1.07349 28.2419 0.726602 27.2423 0.725528 26.1997V0.918937Z" fill="white"/>
</svg>
